<svg width="800" height="600" xmlns="http://www.w3.org/2000/svg">
 <g>
  <title>Layer 1</title>
  <ellipse fill="#ffffff" stroke="#000" cx="513.99999" cy="174.4" id="svg_27"/>
  <path id="svg_39" d="m178.09969,156.90015c-21.27072,0 -38.5,-16.89365 -38.5,-37.75c0,-20.85635 17.22928,-37.75 38.5,-37.75c21.27072,0 38.5,16.89365 38.5,37.75c0,20.85635 -17.22928,37.75 -38.5,37.75z" opacity="undefined" stroke="#BF7E96" fill="#4a3bce"/>
  <path stroke="#ffffff" id="svg_1" d="m175.28393,135.11387l9.67145,-9.92727l-18.69928,0l-18.69924,0l0,-6.14545l0,-6.14546l18.48472,0c10.16658,0 18.4847,-0.31148 18.4847,-0.69218c0,-0.38069 -4.04728,-4.84796 -8.99395,-9.92727l-8.99398,-9.2351l8.31319,0l8.31316,0l12.69607,13.01245l12.69607,13.01244l-12.72042,12.98755l-12.72042,12.98755l-8.75177,0l-8.75179,0l9.67148,-9.92727l0,0l0.00001,0.00001z" fill="#ffffff"/>
 </g>

</svg>